<svg width="1128" height="191" viewBox="0 0 1128 191" fill="none" xmlns="http://www.w3.org/2000/svg">
    <rect width="1128" height="191" fill="#050505"/>

    <defs>
        <pattern id="horizontalGrid" width="1128" height="20" patternUnits="userSpaceOnUse">
            <line x1="0" y1="0" x2="1128" y2="0" stroke="#ededed" stroke-width="0.5" stroke-opacity="0.03"/>
        </pattern>
        <radialGradient id="centerHighlight" cx="50%" cy="50%" r="50%" fx="50%" fy="50%">
            <stop offset="0%" stop-color="#ededed" stop-opacity="0.05" />
            <stop offset="100%" stop-color="#ededed" stop-opacity="0" />
        </radialGradient>
    </defs>
    <rect width="1128" height="191" fill="url(#horizontalGrid)" />
    <rect width="1128" height="191" fill="url(#centerHighlight)" />

    <g transform="translate(564, 85) scale(0.28)">
        <g transform="translate(-256, -250)">
            <path d="M256 120L130 380H190L256 240L322 380H382L256 120Z" fill="#ededed"/>
            <circle cx="256" cy="340" r="30" fill="#ededed"/>
            <path d="M256 120L130 380H190L256 240L322 380H382L256 120Z" stroke="#050505" stroke-width="12" stroke-linejoin="round"/>
        </g>
    </g>

    <text x="564" y="145" text-anchor="middle" fill="#ededed" font-family="monospace" font-size="12" letter-spacing="0.5em" font-weight="bold">ASTRAEN</text>

    <g transform="translate(1000, 80)">
        <text fill="#444" font-family="monospace" font-size="8" letter-spacing="0.1em">CORE_SYS: v0.0.1</text>
        <text y="15" fill="#444" font-family="monospace" font-size="8" letter-spacing="0.1em">STATUS: OPERATIONAL</text>
        <rect y="25" width="60" height="1" fill="#ededed" fill-opacity="0.1"/>
    </g>

    <rect x="20" y="20" width="10" height="10" stroke="#ededed" stroke-opacity="0.1" stroke-width="0.5" fill="none"/>
    <rect x="1098" y="161" width="10" height="10" stroke="#ededed" stroke-opacity="0.1" stroke-width="0.5" fill="none"/>
</svg>